<svg width="24" height="24" viewBox="0 0 24 24" fill="none" xmlns="http://www.w3.org/2000/svg">
<path d="M21.0002 16.9999L3.00019 16.9999C2.73497 16.9999 2.48061 17.1052 2.29308 17.2928C2.10554 17.4803 2.00019 17.7347 2.00019 17.9999C2.00019 18.2651 2.10554 18.5194 2.29308 18.707C2.48061 18.8945 2.73497 18.9999 3.00019 18.9999L21.0002 18.9999C21.2654 18.9999 21.5198 18.8945 21.7073 18.707C21.8948 18.5194 22.0002 18.2651 22.0002 17.9999C22.0002 17.7347 21.8948 17.4803 21.7073 17.2928C21.5198 17.1052 21.2654 16.9999 21.0002 16.9999ZM21.0002 12.9999L7.00018 12.9999C6.73497 12.9999 6.48061 13.1052 6.29308 13.2928C6.10554 13.4803 6.00019 13.7347 6.00019 13.9999C6.00019 14.2651 6.10554 14.5194 6.29308 14.707C6.48061 14.8945 6.73497 14.9999 7.00018 14.9999L21.0002 14.9999C21.2654 14.9999 21.5198 14.8945 21.7073 14.707C21.8948 14.5194 22.0002 14.2651 22.0002 13.9999C22.0002 13.7347 21.8948 13.4803 21.7073 13.2928C21.5198 13.1052 21.2654 12.9999 21.0002 12.9999ZM3.00019 10.9999L21.0002 10.9999C21.2654 10.9999 21.5198 10.8945 21.7073 10.707C21.8948 10.5194 22.0002 10.2651 22.0002 9.99988C22.0002 9.73466 21.8948 9.48031 21.7073 9.29277C21.5198 9.10524 21.2654 8.99988 21.0002 8.99988L3.00019 8.99988C2.73497 8.99988 2.48061 9.10524 2.29308 9.29277C2.10554 9.48031 2.00019 9.73466 2.00019 9.99988C2.00019 10.2651 2.10554 10.5194 2.29308 10.707C2.48061 10.8945 2.73497 10.9999 3.00019 10.9999ZM7.00018 6.99988L21.0002 6.99988C21.2654 6.99988 21.5198 6.89452 21.7073 6.70699C21.8948 6.51945 22.0002 6.2651 22.0002 5.99988C22.0002 5.73466 21.8948 5.48031 21.7073 5.29277C21.5198 5.10524 21.2654 4.99988 21.0002 4.99988L7.00018 4.99988C6.73497 4.99988 6.48061 5.10524 6.29308 5.29277C6.10554 5.48031 6.00019 5.73466 6.00019 5.99988C6.00019 6.2651 6.10554 6.51945 6.29308 6.70699C6.48061 6.89452 6.73497 6.99988 7.00018 6.99988Z" fill="black"/>
</svg>
